<svg preserveAspectRatio="none" width="100%" height="100%" overflow="visible" style="display: block;" viewBox="0 0 17 13" fill="none" xmlns="http://www.w3.org/2000/svg">
<path id="Union" d="M8.49219 0C11.5234 4.9389e-07 14.3047 1.875 16.7734 5.5625C17.0547 6 17.0547 6.53125 16.7734 6.96875C14.3047 10.625 11.5234 12.5 8.49219 12.5C5.46094 12.5 2.67969 10.625 0.210938 6.9375C-0.0703125 6.5 -0.0703125 5.96875 0.210938 5.53125C2.67969 1.875 5.46094 0 8.49219 0ZM8.49219 1.25C5.89844 1.25 3.46094 2.9375 1.24219 6.25C3.49219 9.5625 5.92969 11.25 8.49219 11.25C11.0547 11.25 13.5234 9.5625 15.7422 6.25C13.5234 2.9375 11.0859 1.25 8.49219 1.25ZM8.49219 3.75C9.86719 3.75 10.9922 4.875 10.9922 6.25C10.9922 7.625 9.86719 8.75 8.49219 8.75C7.11719 8.75 5.99219 7.625 5.99219 6.25C5.99219 4.875 7.11719 3.75 8.49219 3.75ZM8.49219 5C7.80469 5 7.24219 5.5625 7.24219 6.25C7.24219 6.9375 7.80469 7.5 8.49219 7.5C9.17969 7.5 9.74219 6.9375 9.74219 6.25C9.74219 5.5625 9.17969 5 8.49219 5Z" fill="var(--fill-0, #858B9B)"/>
</svg>
