<svg width="20" height="20" viewBox="0 0 20 20" fill="none" xmlns="http://www.w3.org/2000/svg">
  <path d="M16.67 8.81005C17.58 8.13005 18.34 7.32005 18.83 6.39005C18.97 6.12005 18.86 5.78005 18.6 5.65005C18.47 5.58005 18.32 5.56005 18.18 5.61005C18.04 5.65005 17.92 5.75005 17.86 5.89005C16.64 8.20005 13.49 9.76005 10.01 9.76005C6.53 9.76005 3.39 8.20005 2.16 5.89005C2.09 5.76005 1.98 5.66005 1.84 5.62005C1.7 5.58005 1.55 5.59005 1.42 5.66005C1.14 5.79005 1.04 6.14005 1.19 6.40005C1.68 7.33005 2.43 8.16005 3.35 8.82005L1.25 11.4401C1.12 11.6101 1.09 11.84 1.18 12.03C1.27 12.22 1.47 12.35 1.68 12.35C1.85 12.35 2 12.28 2.11 12.14L4.29 9.43005C5.26 9.97005 6.37 10.37 7.57 10.6101L6.18 13.64C6.05 13.92 6.18 14.2501 6.46 14.3701C6.54 14.4001 6.62 14.43 6.69 14.43C6.9 14.43 7.1 14.3101 7.2 14.1101L8.7 10.78C9.12 10.82 9.56 10.86 10 10.86C10.36 10.86 10.7 10.8301 11.04 10.8001L12.55 14.1C12.61 14.2301 12.72 14.34 12.86 14.39C13 14.4401 13.15 14.4301 13.28 14.3701C13.56 14.2501 13.68 13.91 13.56 13.64L12.2 10.64C13.44 10.4401 14.63 10.0201 15.72 9.41005L17.89 12.1201C18 12.2501 18.16 12.3301 18.32 12.3301C18.44 12.3301 18.56 12.29 18.66 12.21C18.9 12.02 18.94 11.6701 18.75 11.43L16.67 8.81005Z" fill="#858B9B"/>
</svg>
