<svg width="18" height="15" viewBox="0 0 18 15" fill="none" xmlns="http://www.w3.org/2000/svg">
  <path d="M17 6C17 10.4183 13.4183 14 9 14C4.58172 14 1 10.4183 1 6" stroke="#37A8FF" stroke-width="2" stroke-linecap="round"/>
  <path d="M12.2427 5.9119H10.8514C10.5497 5.9119 9.71639 6.06247 9.42319 5.88444C9.36738 5.68179 9.55277 5.31057 9.60195 5.13539L10.0314 3.59751L10.6584 1.35887C10.7398 1.06626 10.3567 0.942203 10.1959 1.16285C8.53033 3.46114 6.86 5.75849 5.18968 8.05489C5.07334 8.21588 5.23035 8.43652 5.40816 8.43652H7.43885C7.58167 8.43652 8.117 8.35224 8.20591 8.47819C8.28725 8.59088 8.13025 8.91664 8.09525 9.04258L6.98958 12.9924C6.9073 13.2831 7.2913 13.4081 7.4502 13.1875L12.4574 6.29637C12.5747 6.13444 12.4167 5.9119 12.2408 5.9119H12.2427Z" fill="#37A8FF"/>
</svg>
