<svg width="18" height="18" viewBox="0 0 18 18" fill="none" xmlns="http://www.w3.org/2000/svg">
  <path d="M17 9C17 13.4183 13.4183 17 9 17C4.58172 17 1 13.4183 1 9" stroke="#37A8FF" stroke-width="2" stroke-linecap="round"/>
  <path d="M13.6983 5.65817V5.59068C13.6744 3.83188 12.2292 2.42643 10.4655 2.45025C9.42239 2.46216 8.45096 2.98623 7.86571 3.84776C7.54721 3.6294 7.16898 3.51426 6.7828 3.51426C5.71183 3.50235 4.83197 4.35595 4.81604 5.42393V5.50731C3.15983 5.83286 2.0809 7.43682 2.40737 9.0924C2.69004 10.5098 3.92424 11.5341 5.37342 11.55H12.5915C14.2796 11.55 15.6491 10.1842 15.6491 8.50084C15.6491 7.24228 14.8768 6.11475 13.6983 5.65817ZM11.9266 8.66758C11.6838 8.90977 11.2856 8.90977 11.0428 8.66758L9.91607 7.54402L8.66595 9.3981C8.56243 9.55691 8.39522 9.66014 8.2081 9.67999H8.14838C7.98117 9.67999 7.82191 9.61249 7.70646 9.49736L6.04228 7.83384C5.80738 7.58372 5.81933 7.1867 6.07413 6.95246C6.31301 6.73013 6.68725 6.73013 6.92613 6.95246L8.05283 8.07603L9.30295 6.214C9.40647 6.05916 9.57368 5.95594 9.7608 5.94006C9.94792 5.92418 10.1311 5.99167 10.2624 6.12269L11.9306 7.7862C12.1655 8.02838 12.1655 8.42143 11.9266 8.66758Z" fill="#37A8FF"/>
</svg>
